<mxfile host="app.diagrams.net" modified="2023-09-10T14:02:35.533Z" agent="Mozilla/5.0 (Macintosh; Intel Mac OS X 10_15_7) AppleWebKit/537.36 (KHTML, like Gecko) Chrome/114.0.0.0 YaBrowser/23.7.0.2562 Yowser/2.5 Safari/537.36" etag="BVwh4ASxKgbk3hKIVkmu" version="21.7.2" type="github">
  <diagram name="Страница — 1" id="DdJtUq3L_0oEUzeU_RWa">
    <mxGraphModel dx="2673" dy="463" grid="1" gridSize="10" guides="1" tooltips="1" connect="1" arrows="1" fold="1" page="1" pageScale="1" pageWidth="827" pageHeight="1169" math="0" shadow="0">
      <root>
        <mxCell id="0" />
        <mxCell id="1" parent="0" />
        <mxCell id="pSJ06roWzF_WPL-AcX-k-2" style="edgeStyle=orthogonalEdgeStyle;rounded=0;orthogonalLoop=1;jettySize=auto;html=1;entryX=0;entryY=0.5;entryDx=0;entryDy=0;" parent="1" source="pSJ06roWzF_WPL-AcX-k-1" target="pSJ06roWzF_WPL-AcX-k-3" edge="1">
          <mxGeometry relative="1" as="geometry">
            <mxPoint x="300" y="240" as="targetPoint" />
            <Array as="points">
              <mxPoint x="130" y="240" />
            </Array>
          </mxGeometry>
        </mxCell>
        <mxCell id="pSJ06roWzF_WPL-AcX-k-12" value="1" style="edgeLabel;html=1;align=center;verticalAlign=middle;resizable=0;points=[];" parent="pSJ06roWzF_WPL-AcX-k-2" vertex="1" connectable="0">
          <mxGeometry x="0.0078" y="-1" relative="1" as="geometry">
            <mxPoint as="offset" />
          </mxGeometry>
        </mxCell>
        <mxCell id="pSJ06roWzF_WPL-AcX-k-4" style="edgeStyle=orthogonalEdgeStyle;rounded=0;orthogonalLoop=1;jettySize=auto;html=1;exitX=0.153;exitY=1.022;exitDx=0;exitDy=0;exitPerimeter=0;" parent="1" source="pSJ06roWzF_WPL-AcX-k-3" edge="1">
          <mxGeometry relative="1" as="geometry">
            <mxPoint x="300" y="420" as="targetPoint" />
            <Array as="points">
              <mxPoint x="330" y="271" />
              <mxPoint x="330" y="340" />
            </Array>
          </mxGeometry>
        </mxCell>
        <mxCell id="pSJ06roWzF_WPL-AcX-k-16" style="edgeStyle=orthogonalEdgeStyle;rounded=0;orthogonalLoop=1;jettySize=auto;html=1;" parent="1" source="pSJ06roWzF_WPL-AcX-k-1" edge="1">
          <mxGeometry relative="1" as="geometry">
            <mxPoint x="-360" y="419.9999999999999" as="targetPoint" />
          </mxGeometry>
        </mxCell>
        <mxCell id="pSJ06roWzF_WPL-AcX-k-17" value="Critical" style="edgeLabel;html=1;align=center;verticalAlign=middle;resizable=0;points=[];" parent="pSJ06roWzF_WPL-AcX-k-16" vertex="1" connectable="0">
          <mxGeometry x="0.3633" relative="1" as="geometry">
            <mxPoint as="offset" />
          </mxGeometry>
        </mxCell>
        <mxCell id="pSJ06roWzF_WPL-AcX-k-23" style="edgeStyle=orthogonalEdgeStyle;rounded=0;orthogonalLoop=1;jettySize=auto;html=1;" parent="1" source="pSJ06roWzF_WPL-AcX-k-1" edge="1">
          <mxGeometry relative="1" as="geometry">
            <mxPoint x="-580" y="420" as="targetPoint" />
          </mxGeometry>
        </mxCell>
        <mxCell id="pSJ06roWzF_WPL-AcX-k-24" value="Base" style="edgeLabel;html=1;align=center;verticalAlign=middle;resizable=0;points=[];" parent="pSJ06roWzF_WPL-AcX-k-23" vertex="1" connectable="0">
          <mxGeometry x="0.6869" y="-1" relative="1" as="geometry">
            <mxPoint as="offset" />
          </mxGeometry>
        </mxCell>
        <mxCell id="pSJ06roWzF_WPL-AcX-k-35" style="edgeStyle=orthogonalEdgeStyle;rounded=0;orthogonalLoop=1;jettySize=auto;html=1;" parent="1" source="pSJ06roWzF_WPL-AcX-k-1" edge="1">
          <mxGeometry relative="1" as="geometry">
            <mxPoint x="-780" y="419.9999999999999" as="targetPoint" />
          </mxGeometry>
        </mxCell>
        <mxCell id="pSJ06roWzF_WPL-AcX-k-1" value="Задачи" style="text;html=1;strokeColor=none;fillColor=none;align=center;verticalAlign=middle;whiteSpace=wrap;rounded=0;" parent="1" vertex="1">
          <mxGeometry x="-270" y="250" width="60" height="30" as="geometry" />
        </mxCell>
        <mxCell id="pSJ06roWzF_WPL-AcX-k-6" style="edgeStyle=orthogonalEdgeStyle;rounded=0;orthogonalLoop=1;jettySize=auto;html=1;entryX=0.43;entryY=-0.002;entryDx=0;entryDy=0;entryPerimeter=0;" parent="1" source="pSJ06roWzF_WPL-AcX-k-1" target="pSJ06roWzF_WPL-AcX-k-7" edge="1">
          <mxGeometry relative="1" as="geometry">
            <mxPoint x="500" y="420" as="targetPoint" />
            <Array as="points">
              <mxPoint x="10" y="290" />
              <mxPoint x="10" y="420" />
            </Array>
          </mxGeometry>
        </mxCell>
        <mxCell id="pSJ06roWzF_WPL-AcX-k-13" value="2" style="edgeLabel;html=1;align=center;verticalAlign=middle;resizable=0;points=[];" parent="pSJ06roWzF_WPL-AcX-k-6" vertex="1" connectable="0">
          <mxGeometry x="0.2852" relative="1" as="geometry">
            <mxPoint as="offset" />
          </mxGeometry>
        </mxCell>
        <mxCell id="pSJ06roWzF_WPL-AcX-k-10" style="edgeStyle=orthogonalEdgeStyle;rounded=0;orthogonalLoop=1;jettySize=auto;html=1;entryX=0.5;entryY=0;entryDx=0;entryDy=0;" parent="1" source="pSJ06roWzF_WPL-AcX-k-3" target="pSJ06roWzF_WPL-AcX-k-11" edge="1">
          <mxGeometry relative="1" as="geometry">
            <mxPoint x="470" y="420" as="targetPoint" />
            <Array as="points">
              <mxPoint x="490" y="240" />
            </Array>
          </mxGeometry>
        </mxCell>
        <mxCell id="pSJ06roWzF_WPL-AcX-k-3" value="Рефакторинг кода&lt;br&gt;7 SP&lt;br&gt;24ч (MD)" style="rounded=0;whiteSpace=wrap;html=1;" parent="1" vertex="1">
          <mxGeometry x="310" y="210" width="120" height="60" as="geometry" />
        </mxCell>
        <mxCell id="pSJ06roWzF_WPL-AcX-k-8" style="edgeStyle=orthogonalEdgeStyle;rounded=0;orthogonalLoop=1;jettySize=auto;html=1;" parent="1" source="pSJ06roWzF_WPL-AcX-k-5" edge="1">
          <mxGeometry relative="1" as="geometry">
            <mxPoint x="300" y="570" as="targetPoint" />
          </mxGeometry>
        </mxCell>
        <mxCell id="pSJ06roWzF_WPL-AcX-k-5" value="Перевести на SteamVR&lt;br&gt;4&lt;br&gt;12ч (D)" style="rounded=0;whiteSpace=wrap;html=1;" parent="1" vertex="1">
          <mxGeometry x="240" y="420" width="120" height="60" as="geometry" />
        </mxCell>
        <mxCell id="pSJ06roWzF_WPL-AcX-k-7" value="Обучение&lt;br&gt;5&lt;br&gt;60ч (5)" style="rounded=0;whiteSpace=wrap;html=1;" parent="1" vertex="1">
          <mxGeometry x="-50" y="710" width="120" height="60" as="geometry" />
        </mxCell>
        <mxCell id="pSJ06roWzF_WPL-AcX-k-30" style="edgeStyle=orthogonalEdgeStyle;rounded=0;orthogonalLoop=1;jettySize=auto;html=1;entryX=0.5;entryY=0;entryDx=0;entryDy=0;" parent="1" source="pSJ06roWzF_WPL-AcX-k-9" target="pSJ06roWzF_WPL-AcX-k-29" edge="1">
          <mxGeometry relative="1" as="geometry">
            <Array as="points">
              <mxPoint x="300" y="690" />
              <mxPoint x="300" y="690" />
            </Array>
          </mxGeometry>
        </mxCell>
        <mxCell id="pSJ06roWzF_WPL-AcX-k-9" value="Смена архитектуры&lt;br&gt;" style="rounded=0;whiteSpace=wrap;html=1;" parent="1" vertex="1">
          <mxGeometry x="240" y="570" width="120" height="60" as="geometry" />
        </mxCell>
        <mxCell id="pSJ06roWzF_WPL-AcX-k-14" style="edgeStyle=orthogonalEdgeStyle;rounded=0;orthogonalLoop=1;jettySize=auto;html=1;entryX=1;entryY=0.5;entryDx=0;entryDy=0;" parent="1" source="pSJ06roWzF_WPL-AcX-k-11" target="pSJ06roWzF_WPL-AcX-k-7" edge="1">
          <mxGeometry relative="1" as="geometry">
            <Array as="points">
              <mxPoint x="490" y="660" />
              <mxPoint x="80" y="660" />
            </Array>
          </mxGeometry>
        </mxCell>
        <mxCell id="pSJ06roWzF_WPL-AcX-k-15" style="edgeStyle=orthogonalEdgeStyle;rounded=0;orthogonalLoop=1;jettySize=auto;html=1;" parent="1" source="pSJ06roWzF_WPL-AcX-k-11" edge="1">
          <mxGeometry relative="1" as="geometry">
            <mxPoint x="360" y="630" as="targetPoint" />
            <Array as="points">
              <mxPoint x="390" y="450" />
              <mxPoint x="390" y="630" />
              <mxPoint x="360" y="630" />
            </Array>
          </mxGeometry>
        </mxCell>
        <mxCell id="pSJ06roWzF_WPL-AcX-k-11" value="Проектирование правил написания кода&lt;br&gt;3&lt;br&gt;12ч (M)" style="rounded=0;whiteSpace=wrap;html=1;" parent="1" vertex="1">
          <mxGeometry x="420" y="420" width="140" height="60" as="geometry" />
        </mxCell>
        <mxCell id="pSJ06roWzF_WPL-AcX-k-19" style="edgeStyle=orthogonalEdgeStyle;rounded=0;orthogonalLoop=1;jettySize=auto;html=1;" parent="1" source="pSJ06roWzF_WPL-AcX-k-18" edge="1">
          <mxGeometry relative="1" as="geometry">
            <mxPoint x="-360" y="540" as="targetPoint" />
          </mxGeometry>
        </mxCell>
        <mxCell id="pSJ06roWzF_WPL-AcX-k-18" value="&lt;div&gt;&lt;font face=&quot;Helvetica Neue&quot;&gt;Статистика&lt;/font&gt;&lt;/div&gt;&lt;div&gt;&lt;font face=&quot;Helvetica Neue&quot;&gt;8&lt;/font&gt;&lt;/div&gt;&lt;div&gt;&lt;font face=&quot;Helvetica Neue&quot;&gt;24ч (2)&lt;/font&gt;&lt;/div&gt;" style="rounded=0;whiteSpace=wrap;html=1;" parent="1" vertex="1">
          <mxGeometry x="-420" y="420" width="120" height="60" as="geometry" />
        </mxCell>
        <mxCell id="pSJ06roWzF_WPL-AcX-k-21" style="edgeStyle=orthogonalEdgeStyle;rounded=0;orthogonalLoop=1;jettySize=auto;html=1;" parent="1" source="pSJ06roWzF_WPL-AcX-k-20" edge="1">
          <mxGeometry relative="1" as="geometry">
            <mxPoint x="-360" y="660" as="targetPoint" />
          </mxGeometry>
        </mxCell>
        <mxCell id="pSJ06roWzF_WPL-AcX-k-20" value="Звуки&lt;br&gt;3&lt;br&gt;12ч (Misha)" style="rounded=0;whiteSpace=wrap;html=1;" parent="1" vertex="1">
          <mxGeometry x="-420" y="540" width="120" height="60" as="geometry" />
        </mxCell>
        <mxCell id="pSJ06roWzF_WPL-AcX-k-26" style="edgeStyle=orthogonalEdgeStyle;rounded=0;orthogonalLoop=1;jettySize=auto;html=1;" parent="1" source="pSJ06roWzF_WPL-AcX-k-22" edge="1">
          <mxGeometry relative="1" as="geometry">
            <mxPoint x="-360" y="780" as="targetPoint" />
          </mxGeometry>
        </mxCell>
        <mxCell id="pSJ06roWzF_WPL-AcX-k-22" value="Интерфейс&lt;br&gt;4&lt;br&gt;12ч (Ilya)" style="rounded=0;whiteSpace=wrap;html=1;" parent="1" vertex="1">
          <mxGeometry x="-420" y="660" width="120" height="60" as="geometry" />
        </mxCell>
        <mxCell id="pSJ06roWzF_WPL-AcX-k-31" style="edgeStyle=orthogonalEdgeStyle;rounded=0;orthogonalLoop=1;jettySize=auto;html=1;" parent="1" source="pSJ06roWzF_WPL-AcX-k-25" edge="1">
          <mxGeometry relative="1" as="geometry">
            <mxPoint x="-580" y="539.9999999999999" as="targetPoint" />
          </mxGeometry>
        </mxCell>
        <mxCell id="pSJ06roWzF_WPL-AcX-k-25" value="Указывать размер комнаты&lt;br&gt;4&lt;br&gt;24ч (2)" style="rounded=0;whiteSpace=wrap;html=1;" parent="1" vertex="1">
          <mxGeometry x="-640" y="420" width="120" height="60" as="geometry" />
        </mxCell>
        <mxCell id="pSJ06roWzF_WPL-AcX-k-27" value="Грунтовка&lt;br&gt;3&lt;br&gt;12ч (Petya)" style="rounded=0;whiteSpace=wrap;html=1;" parent="1" vertex="1">
          <mxGeometry x="-420" y="780" width="120" height="60" as="geometry" />
        </mxCell>
        <mxCell id="pSJ06roWzF_WPL-AcX-k-29" value="Доработать&lt;br&gt;3&lt;br&gt;36ч (3)" style="rounded=0;whiteSpace=wrap;html=1;" parent="1" vertex="1">
          <mxGeometry x="240" y="710" width="120" height="60" as="geometry" />
        </mxCell>
        <mxCell id="pSJ06roWzF_WPL-AcX-k-33" style="edgeStyle=orthogonalEdgeStyle;rounded=0;orthogonalLoop=1;jettySize=auto;html=1;" parent="1" source="pSJ06roWzF_WPL-AcX-k-32" edge="1">
          <mxGeometry relative="1" as="geometry">
            <mxPoint x="-580" y="660" as="targetPoint" />
          </mxGeometry>
        </mxCell>
        <mxCell id="pSJ06roWzF_WPL-AcX-k-32" value="Калькулятор&lt;br&gt;4&lt;br&gt;12ч" style="rounded=0;whiteSpace=wrap;html=1;" parent="1" vertex="1">
          <mxGeometry x="-640" y="540" width="120" height="60" as="geometry" />
        </mxCell>
        <mxCell id="pSJ06roWzF_WPL-AcX-k-34" value="Сделать два режима игры&lt;br&gt;5&lt;br&gt;36 (2)" style="rounded=0;whiteSpace=wrap;html=1;" parent="1" vertex="1">
          <mxGeometry x="-640" y="660" width="120" height="60" as="geometry" />
        </mxCell>
        <mxCell id="pSJ06roWzF_WPL-AcX-k-37" style="edgeStyle=orthogonalEdgeStyle;rounded=0;orthogonalLoop=1;jettySize=auto;html=1;" parent="1" source="pSJ06roWzF_WPL-AcX-k-36" edge="1">
          <mxGeometry relative="1" as="geometry">
            <mxPoint x="-780" y="539.9999999999999" as="targetPoint" />
          </mxGeometry>
        </mxCell>
        <mxCell id="pSJ06roWzF_WPL-AcX-k-36" value="Инвентарь&lt;br&gt;5&lt;br&gt;12ч" style="rounded=0;whiteSpace=wrap;html=1;" parent="1" vertex="1">
          <mxGeometry x="-840" y="420" width="120" height="60" as="geometry" />
        </mxCell>
        <mxCell id="pSJ06roWzF_WPL-AcX-k-38" value="Выбор места установки стен&lt;br&gt;7&lt;br&gt;24ч" style="rounded=0;whiteSpace=wrap;html=1;" parent="1" vertex="1">
          <mxGeometry x="-840" y="540" width="120" height="60" as="geometry" />
        </mxCell>
        <mxCell id="pSJ06roWzF_WPL-AcX-k-40" value="" style="shape=stencil(fZbdcgIhDIWfZm8zQAg/17Z9j85U606tdqz9e/tmZ0c0uJ47xP0I5JwEBl59bp8/1kNwn6fj4W39M76ctgM/DCGM++36OJ50NPDjwKvN4bh+PR6+9i/z74/n6ctp9H74nlb4nbmSKZeJCu5vngmZ6jzzNAO7cX8FVKEsBuBKrgKg9oAE8gkCbLeUhEoEQKSUDZDLeWYRKIl8MEDRmHwfyBrBG6Amyu4+kDxxMoB3jhwgYu7TVAsVkFcWCs4CTBEoF4RctKeOxHIf8IXYpikHikAIf+MNUW94AGSSaoAoFIE3AlOyeWU+p2E5S9yfQZcQILVuQOwZdJNoS9Ls3wA5u2XZTIHECqeJ9kDpSaauRiNVcAY1QhdBzeLBli5WazpkSsBLV25uRaqWRyFawTQzRRIQYirJzq5atkBqLfouwqUxLBepthWb10vrWZY6UOAeyKCCtDV625mm9gmUC4Wc3VLJMMIE1BsA2FW9JraVlQB7n3c9oMKhCLEvIM1zBPZ25/umNQ1tVEC2G+fFCC8g398O2hNQuQlVu752DBfA+q0ptnqO5JFmeuIuo9DY7KjY71UxdJV4EntifPWorW++R/dC4t7V3DlIB5cHx2bc7eb3yvX//QNFp+bHDT/+Aw==);lineShape=1;" parent="1" vertex="1">
          <mxGeometry x="-714.504854591396" y="643.6036637644961" width="3.222441222148424" height="3.21740428714324" as="geometry" />
        </mxCell>
      </root>
    </mxGraphModel>
  </diagram>
</mxfile>
